<?xml version="1.0" encoding="utf-8"?>
<!-- Generator: Adobe Illustrator 27.9.0, SVG Export Plug-In . SVG Version: 6.00 Build 0)  -->
<svg version="1.1" id="Layer_1" xmlns="http://www.w3.org/2000/svg" xmlns:xlink="http://www.w3.org/1999/xlink" x="0px" y="0px"
	 viewBox="0 0 1200 1200" style="enable-background:new 0 0 1200 1200;" xml:space="preserve">
<style type="text/css">
	.st0{clip-path:url(#SVGID_00000065064936325286886240000006669789682077623945_);}
	.st1{clip-path:url(#SVGID_00000056407643939376681180000015893777559261671870_);}
	.st2{fill:#FFFFFF;filter:url(#Adobe_OpacityMaskFilter);}
	.st3{mask:url(#mask0_655_674_00000045621196257361173720000001616143604486516867_);}
	.st4{fill-rule:evenodd;clip-rule:evenodd;fill:#0072BC;}
</style>
<g>
	<defs>
		<rect id="SVGID_1_" x="23.7" y="23.7" width="1152.6" height="1152.6"/>
	</defs>
	<clipPath id="SVGID_00000157990190681651482490000011054008234615160461_">
		<use xlink:href="#SVGID_1_"  style="overflow:visible;"/>
	</clipPath>
	<g style="clip-path:url(#SVGID_00000157990190681651482490000011054008234615160461_);">
		<g>
			<defs>
				<rect id="SVGID_00000011014237122385733980000013760807767588501378_" x="23.7" y="23.7" width="1147.9" height="1147.9"/>
			</defs>
			<clipPath id="SVGID_00000152967920908599650150000013325404462899359932_">
				<use xlink:href="#SVGID_00000011014237122385733980000013760807767588501378_"  style="overflow:visible;"/>
			</clipPath>
			<g style="clip-path:url(#SVGID_00000152967920908599650150000013325404462899359932_);">
				<defs>
					<filter id="Adobe_OpacityMaskFilter" filterUnits="userSpaceOnUse" x="23.7" y="23.7" width="1185.5" height="1283.8">
						<feColorMatrix  type="matrix" values="1 0 0 0 0  0 1 0 0 0  0 0 1 0 0  0 0 0 1 0"/>
					</filter>
				</defs>
				
					<mask maskUnits="userSpaceOnUse" x="23.7" y="23.7" width="1185.5" height="1283.8" id="mask0_655_674_00000045621196257361173720000001616143604486516867_">
					<path class="st2" d="M789,23.7H406.3C113.7,23.7,23.7,199,23.7,405v766.6h1147.9V23.7H789z"/>
				</mask>
				<g class="st3">
					<path class="st4" d="M780,1171.6V23.7h18v1147.9H780z"/>
					<path class="st4" d="M397.4,1171.6V23.7h18v1147.9H397.4z"/>
					<path class="st4" d="M23.7,779.9h1147.9v18H23.7V779.9z"/>
					<path class="st4" d="M23.7,397.3h1147.9v18H23.7V397.3z"/>
					<path class="st4" d="M23.7,405c0-206,90-381.3,382.6-381.3c204.1,0,305,216.4,366.8,349.1c5.5,11.9,10.8,23.1,15.7,33.4
						l420.3,837.6H825.3L596.1,788.8L406.4,401.3l1.1,842.4H23.7V405z"/>
					<path class="st4" d="M23.7,1171.6V23.7h1147.9v1147.9H23.7z M1153.6,1153.6V41.7H41.7v1111.9H1153.6z"/>
					<path class="st4" d="M388.4,401.3l34.2-7.9l189.7,387.4l265.4,526.6H388.4L388.4,401.3z M424.4,479.1l0,792.4h394.7
						L579.9,796.7L424.4,479.1z"/>
				</g>
			</g>
		</g>
	</g>
</g>
</svg>
